<svg width="177" height="104" viewBox="0 0 177 104" xmlns="http://www.w3.org/2000/svg">
    <g fill="#3B3E42">
        <path d="M115.007.688c1.057 0 2.09.024 3.098.072 1.01.048 1.754.407 2.234 1.078.48.67.72 1.558.72 2.66V73.146c0 .767.168 7.07.216 7.692.048.623.168 1.174.36 1.653.672 1.247 2.018 1.87 4.035 1.87H165.143c.77 0 1.73-.024 2.883-.072 1.153-.048 2.257-.048 3.314 0 1.056.048 2.04.168 2.954.36.912.19 1.513.48 1.8.862.48.575.722 1.294.722 2.157v9.344c0 .768.024 1.487.072 2.158.048.67-.024 1.246-.217 1.725-.383.767-.863 1.294-1.44 1.58-.48.385-1.2.577-2.16.577h-68.007c-1.345 0-2.522-.072-3.53-.216-1.01-.144-1.754-.6-2.235-1.366-.384-.575-.576-1.318-.576-2.228V6.87c0-.863.024-1.725.072-2.588.048-.862.216-1.533.504-2.013.385-.67 1.153-1.15 2.306-1.438.192-.096.384-.12.577-.072.193.048.385.024.577-.072h12.25z"/>
        <path d="M58.37.416h12.538c1.153 0 2.258.048 3.314.144 1.057.096 1.826.48 2.306 1.15.192.288.313.623.36 1.007.05.383.17.766.36 1.15v1.58c.097.672.12 1.39.073 2.158-.047.767-.07 1.485-.07 2.156 0 .768.023 1.51.07 2.23.05.718.025 1.413-.07 2.084-.097.48-.145 1.198-.145 2.157-.288 1.15-.77 1.918-1.44 2.3-.578.384-1.298.576-2.163.576H34.735c-.768 0-1.657-.024-2.666-.072-1.01-.048-2.018-.048-3.027 0-1.01.048-1.946.144-2.81.288-.865.143-1.49.36-1.874.647-.673.478-1.082 1.173-1.226 2.083-.144.91-.216 1.94-.216 3.09v12.364c.192.767.384 1.414.576 1.94.193.528.53.935 1.01 1.223.576.384 1.248.6 2.017.648.77.048 1.586.072 2.45.072h32.57c.673 0 1.514-.024 2.522-.072 1.01-.048 1.994-.048 2.955 0 .96.048 1.85.12 2.666.216.817.095 1.417.287 1.8.575.482.286.818.86 1.01 1.724.192.862.312 1.797.36 2.803.048 1.007.048 2.037 0 3.09-.048 1.056-.072 1.966-.072 2.733v2.013c0 .67-.095 1.246-.287 1.725-.192.766-.576 1.39-1.153 1.87-.48.286-1.13.478-1.945.574-.817.096-1.73.144-2.738.144-1.01 0-2.018-.024-3.027-.072-1.01-.048-1.85-.072-2.522-.072H33.006c-1.153 0-2.258-.024-3.315-.072-1.056-.048-2.04 0-2.953.144-.913.143-1.68.43-2.306.862-.623.432-1.08 1.078-1.368 1.94-.096.48-.144.983-.144 1.51V78.05c0 1.15.072 2.18.216 3.09.144.912.553 1.607 1.225 2.086.287.287.648.455 1.08.503.432.047.89.167 1.37.358h1.44c.48.096 1.01.12 1.585.072.577-.048 1.105-.072 1.586-.072H74.44c.72 0 1.368.144 1.944.432.77.287 1.297.814 1.585 1.58.192.48.312 1.055.36 1.726.048.67.072 1.39.072 2.157v6.613c0 1.15-.048 2.228-.144 3.235-.096 1.007-.53 1.75-1.297 2.23-.576.478-1.32.718-2.233.718H6.92c-1.344 0-2.52-.072-3.53-.216-1.008-.143-1.753-.6-2.233-1.365-.385-.575-.577-1.318-.577-2.23V4.01c0-.862.192-1.533.577-2.012.384-.67 1.105-1.15 2.16-1.438.194-.096.386-.12.578-.072.192.048.384.024.576-.072h53.9z"/>
    </g>
</svg>
